<?xml version="1.0" standalone="no"?>
<!DOCTYPE svg PUBLIC "-//W3C//DTD SVG 20010904//EN"
 "http://www.w3.org/TR/2001/REC-SVG-20010904/DTD/svg10.dtd">
<svg version="1.0" xmlns="http://www.w3.org/2000/svg"
 width="512.000000pt" height="512.000000pt" viewBox="0 0 512.000000 512.000000"
 preserveAspectRatio="xMidYMid meet">
<metadata>
Created by potrace 1.14, written by Peter Selinger 2001-2017
</metadata>
<g transform="translate(0.000000,512.000000) scale(0.100000,-0.100000)"
fill="#000000" stroke="none">
<path d="M4434 5096 c-117 -54 -168 -200 -111 -316 10 -18 17 -37 17 -42 0 -4
-164 -255 -365 -557 l-366 -550 -39 5 c-51 6 -116 -11 -157 -42 l-32 -25 -293
148 -293 148 -2 47 c-10 203 -265 292 -407 142 -56 -60 -79 -182 -46 -244 7
-13 -60 -85 -323 -348 -183 -183 -335 -335 -339 -338 -3 -3 -16 0 -28 6 -33
18 -124 13 -173 -8 -79 -36 -131 -110 -140 -201 l-4 -44 -114 -59 c-63 -33
-193 -100 -289 -149 l-175 -89 -28 21 c-36 26 -101 49 -141 49 -86 0 -180 -62
-217 -143 -68 -151 49 -330 216 -330 122 1 218 90 234 217 7 57 -37 29 353
229 l227 117 36 -24 c53 -36 101 -49 160 -43 86 9 146 51 188 132 20 38 25 97
15 187 -3 23 40 70 326 358 281 281 333 329 350 323 12 -5 53 -8 93 -8 64 0
76 4 115 31 l43 31 293 -146 292 -146 0 -40 c0 -86 74 -188 157 -216 199 -66
375 128 292 322 l-21 49 365 549 365 549 70 4 c132 7 223 95 228 221 8 180
-169 299 -332 223z"/>
<path d="M4234 3999 c-19 -21 -19 -67 -19 -1933 l-1 -1911 -172 -3 c-94 -1
-173 1 -173 5 -1 5 -2 528 -4 1163 -1 635 -3 1160 -4 1167 0 6 -8 19 -17 27
-13 14 -54 16 -298 16 -261 0 -284 -1 -299 -18 -16 -17 -17 -117 -19 -1188
l-3 -1169 -172 -3 c-160 -2 -173 -1 -174 15 0 10 0 649 -1 1419 0 771 -3 1406
-7 1411 -18 29 -57 33 -320 33 -265 0 -271 0 -291 -22 -20 -22 -20 -27 -20
-1440 l0 -1418 -175 0 -175 0 0 923 c0 922 0 924 -21 943 -19 17 -42 19 -296
20 l-276 2 -23 -23 -24 -24 1 -908 c0 -499 0 -914 0 -920 -1 -10 -43 -13 -174
-13 l-173 0 0 674 c0 644 -1 676 -18 695 -18 20 -29 21 -301 21 -273 0 -282
-1 -301 -21 -18 -20 -19 -48 -20 -687 -1 -367 -2 -670 -3 -674 0 -5 -44 -8
-96 -8 -88 0 -98 -2 -120 -25 -30 -29 -32 -64 -6 -96 l19 -24 2497 -3 2496 -2
24 24 c30 31 32 65 4 100 -20 25 -24 26 -123 26 l-103 0 0 1917 0 1917 -23 18
c-20 16 -46 18 -300 18 -269 0 -277 -1 -296 -21z"/>
</g>
</svg>
